<svg xmlns="http://www.w3.org/2000/svg" xmlns:xlink="http://www.w3.org/1999/xlink" viewBox="0 0 1431.42 360"><defs><style>.cls-1{fill:url(#무제_그라디언트_21);}.cls-2{fill:url(#무제_그라디언트_68);}.cls-3{fill:url(#무제_그라디언트_30);}.cls-4{fill:url(#무제_그라디언트_62);}</style><linearGradient id="무제_그라디언트_21" x1="111.97" y1="149.8" x2="312.82" y2="-51.05" gradientUnits="userSpaceOnUse"><stop offset="0" stop-color="#ff2f00"/><stop offset="0.13" stop-color="#ff3f00"/><stop offset="0.39" stop-color="#ff6700"/><stop offset="0.59" stop-color="#ff8b00"/></linearGradient><linearGradient id="무제_그라디언트_68" x1="281.56" y1="282.06" x2="281.56" y2="51.37" gradientUnits="userSpaceOnUse"><stop offset="0.2" stop-color="#ef0048"/><stop offset="0.79" stop-color="#ff8b00"/></linearGradient><linearGradient id="무제_그라디언트_30" x1="-0.82" y1="252.46" x2="182.62" y2="69.02" gradientUnits="userSpaceOnUse"><stop offset="0.09" stop-color="#840000"/><stop offset="0.26" stop-color="#a90e00"/><stop offset="0.45" stop-color="#ce1c00"/><stop offset="0.64" stop-color="#e92700"/><stop offset="0.8" stop-color="#f92d00"/><stop offset="0.93" stop-color="#ff2f00"/></linearGradient><linearGradient id="무제_그라디언트_62" x1="83.67" y1="351.04" x2="256.69" y2="251.15" gradientUnits="userSpaceOnUse"><stop offset="0.07" stop-color="#840000"/><stop offset="0.88" stop-color="#d20168"/></linearGradient></defs><g id="Layer_2" data-name="Layer 2"><g id="레이어_1" data-name="레이어 1"><path d="M1357.54,123.05c-22.73,0-45.15,9.79-54,25.58V126.32h-38.83V297h40.1v-90.3c0-30,17.36-48.62,44.51-48.62,30.63,0,41.05,19.89,41.05,47V297h41V193.15C1431.42,149.26,1403.64,123.05,1357.54,123.05Z"/><rect x="660.45" y="62.98" width="40.01" height="234.04"/><polygon points="1203.63 86.25 1163.62 86.25 1163.62 126.33 1141.29 126.33 1127.13 164.13 1163.62 164.13 1163.62 297.02 1203.63 297.02 1203.63 164.13 1243.92 164.13 1243.92 126.33 1203.63 126.33 1203.63 86.25"/><polygon points="636.43 126.32 590.62 126.32 508.58 245.11 508.58 62.98 468.08 62.98 468.08 297.02 516.55 297.02 555.42 241.68 596.22 297.02 642.7 297.02 577.59 210.11 636.43 126.32"/><path d="M872.06,145.79c-14.94-16-36.14-22.94-60.12-22.94-49,0-86.53,39.27-86.53,89s37.53,88.61,86.53,88.61c24,0,45.18-6.6,60.12-22.24V297h40V126.32h-40ZM818.54,263.94a52.3,52.3,0,0,1,0-104.6c28.85,0,52.48,21.2,52.48,52.48C871,242.75,847.39,263.94,818.54,263.94Z"/><polygon points="1012.8 297.02 990.11 360 1034 360 1118.9 126.33 1074.3 126.33 1022.93 268.9 974.02 126.33 928.7 126.33 987.98 297.02 1012.8 297.02"/><path class="cls-1" d="M295.45,41.66A179.34,179.34,0,0,0,186.43,0L94.6,242.51Z"/><path class="cls-2" d="M318.35,64.6,203,180,318.33,295.29A180.1,180.1,0,0,0,318.35,64.6Z"/><path class="cls-3" d="M141.29,27.68.35,168.61A179.74,179.74,0,0,0,40.51,293.79Z"/><path class="cls-4" d="M180.07,202.88,64.73,318.22a180.09,180.09,0,0,0,230.68,0Z"/></g></g></svg>